<?xml version="1.0" standalone="no"?>
<!DOCTYPE svg PUBLIC "-//W3C//DTD SVG 1.1//EN" "http://www.w3.org/Graphics/SVG/1.1/DTD/svg11.dtd" >
<!--
2013-9-30: Created.
-->
<svg>
<metadata>
Created by iconfont
</metadata>
<defs>

<font id="iconfont" horiz-adv-x="1024" >
  <font-face
    font-family="iconfont"
    font-weight="500"
    font-stretch="normal"
    units-per-em="1024"
    ascent="896"
    descent="-128"
  />
    <missing-glyph />
    
    <glyph glyph-name="gengduo" unicode="&#58934;" d="M147.91111147 475.02222187c-50.06222187 0-91.02222187-40.96-91.02222187-91.02222187 0-50.06222187 40.96-91.02222187 91.02222187-91.02222187s91.02222187 40.96 91.02222186 91.02222187C238.93333333 434.06222187 197.97333333 475.02222187 147.91111147 475.02222187zM876.08888853 475.02222187c-50.06222187 0-91.02222187-40.96-91.02222186-91.02222187 0-50.06222187 40.96-91.02222187 91.02222186-91.02222187s91.02222187 40.96 91.02222187 91.02222187C967.11111147 434.06222187 926.15111147 475.02222187 876.08888853 475.02222187zM512 475.02222187c-50.06222187 0-91.02222187-40.96-91.02222187-91.02222187 0-50.06222187 40.96-91.02222187 91.02222187-91.02222187s91.02222187 40.96 91.02222187 91.02222187C603.02222187 434.06222187 562.06222187 475.02222187 512 475.02222187z"  horiz-adv-x="1024" />

    
    <glyph glyph-name="biaoqing" unicode="&#58914;" d="M511.88038086 834c-248.45114971 0-449.86149404-201.41034346-449.86149404-449.86149404s201.41034346-449.86149404 449.86149404-449.86149405 449.86149404 201.41034346 449.86149404 449.86149405S760.33153144 834 511.88038086 834zM686.82616807 609.06880342c41.41062334 0 74.97676583-33.56704161 74.97676581-74.97676582s-33.56704161-74.97676583-74.97676581-74.97676582c-41.41062334 0-74.97676583 33.56704161-74.97676583 74.97676582S645.41644385 609.06880342 686.82616807 609.06880342zM311.94143984 609.06880342c41.41062334 0 74.97676583-33.56704161 74.97676582-74.97676582s-33.56704161-74.97676583-74.97676582-74.97676582c-41.41062334 0-74.97676583 33.56704161-74.97676582 74.97676582S270.53171563 609.06880342 311.94143984 609.06880342zM511.88038086 59.23828886000001c-144.55898877 0-267.0658295 94.40899102-309.22924219 224.93119659l618.45938438 0C778.94621035 153.64727901000003 656.43847051 59.23828886000001 511.88038086 59.23828886000001z"  horiz-adv-x="1024" />

    
    <glyph glyph-name="sousuo" unicode="&#58962;" d="M947.480232 1.72964300000001L710.948121 237.07471899999996c51.28299 62.794162 82.046644 143.002948 82.046644 230.40046 0 201.309912-163.193803 364.504738-364.505761 364.504738S63.981197 668.785092 63.981197 467.47518s163.193803-364.504738 364.505761-364.504738c86.105077 0 165.233252 29.859052 227.603765 79.782068l236.989529-235.799424c7.537673-7.475252 17.337877-11.181667 27.199479-11.181667 9.925047 0 19.787672 3.768837 27.387767 11.369955C962.682469-37.78225599999996 962.619024-13.345703999999955 947.480232 1.72964300000001zM141.17123 467.47518c0 158.426219 128.888486 287.315728 287.315728 287.315728s287.315728-128.890532 287.315728-287.315728S586.916247 180.15842899999996 428.487981 180.15842899999996 141.17123 309.04896099999996 141.17123 467.47518z"  horiz-adv-x="1024" />

    
    <glyph glyph-name="send" unicode="&#58883;" d="M83.83333343-66L1133.33333362 384 83.83333343 834 83.33333333 484.0000002 833.33333304 384 83.33333333 283.99999979999996Z"  horiz-adv-x="1195" />

    
    <glyph glyph-name="fenxiang" unicode="&#58911;" d="M821.35862427 245.781525C763.33303958 245.781525 713.4877227 212.99141343999997 687.72182427 165.28453312L349.56060739 336.72903843999995C358.00346896 355.67369155999995 362.91434802 376.52661937000005 362.91434802 398.60465062 362.91434802 422.06471813 357.18219927 444.02452875 347.71510489 463.87937906L700.82028833 609.3979143700001C728.71730708 573.52568906 771.80205833 550.03946719 820.76333333 550.03946719 904.96911458 550.03946719 973.23284802 618.30110625 973.23284802 702.50897906 973.23284802 786.71475937 904.96806927 854.97848999 820.76333333 854.97848999 736.55546146 854.97848999 668.29382427 786.71475937 668.29382427 702.50897906 668.29382427 694.5965409400001 669.45929614 686.99587406 670.62267177 679.40880563L295.80144083 524.94313875C271.44268489 541.4313065599999 242.07366083 551.07416343 210.44483708 551.07416343 126.23696334 551.07416343 57.97532521 482.80938656 57.97532521 398.60465156 57.97532521 314.39677874999995 126.2369652 246.13514155999997 210.44483708 246.13514155999997 244.25604177 246.13514155999997 275.19855552 257.50004813 300.48320146 276.12665625L669.31073614 89.13661311999999C671.57471989 6.9092053099999475 738.58195771-59.157498749999945 821.35966958-59.157498749999945 905.56545083-59.157498749999945 973.82918427 9.104138440000042 973.82918427 93.31201031 973.82813896 177.51674624999998 905.56440552 245.781525 821.35862427 245.781525L821.35862427 245.781525Z"  horiz-adv-x="1024" />

    
    <glyph glyph-name="gou" unicode="&#58881;" d="M76.433298 382.429225c-15.572674 15.164375-15.925714 40.09723-0.762363 55.68423 15.152095 15.576767 40.08802 15.930831 55.673997 0.766456l262.754333-255.619842 496.011864 488.654292c15.508205 15.248286 40.427758 15.034415 55.672974-0.461511 15.247262-15.503089 15.043624-40.435944-0.458441-55.66888L421.878958 100.10313799999994c-15.208377-14.980179-39.674605-15.113209-55.047734-0.150426L76.433298 382.429225 76.433298 382.429225zM76.433298 382.429225"  horiz-adv-x="1024" />

    
    <glyph glyph-name="message" unicode="&#58880;" d="M511.99062471 46.502359869999964c-28.78184883 0-75.00156065 0-75.00156065 0L230.75352178-65.99998154000002 230.75352178 140.23556073999998c-102.80838955 72.17025205-168.75351211 175.74740771-168.75351211 300.02499405C62.00000967 657.70883057 263.47295234 834 511.99062471 834s449.99061503-176.29116943 449.99061503-393.73944434C961.99999033 222.77477870999996 760.52704766 46.502359869999964 511.99062471 46.502359869999964L511.99062471 46.502359869999964zM511.99062471 777.76757988c-217.44827578 0-393.77694551-151.10939531-393.77694551-337.50702422 0-114.37738066 67.25764951-220.20458291 168.79101328-281.23710293l0-125.00885215 149.96562099 68.73893086c0 0 42.16962744 0 75.00156065 0 217.44827578 0 393.77694551 151.10939531 393.77694551 337.50702422C905.76757021 626.6769351600001 729.43890049 777.76757988 511.99062471 777.76757988L511.99062471 777.76757988zM737.0140581 384.00938497c-31.08814717 0-56.26992129 25.18177412-56.26992128 56.26992128s25.18177412 56.26992129 56.26992128 56.26992129c31.05064599 0 56.23242012-25.18177412 56.23242012-56.26992129S768.06470411 384.00938497 737.0140581 384.00938497L737.0140581 384.00938497zM511.99062471 384.00938497c-31.08814717 0-56.26992129 25.18177412-56.26992129 56.26992128s25.18177412 56.26992129 56.26992129 56.26992129c31.08814717 0 56.26992129-25.18177412 56.26992128-56.26992129S543.07877187 384.00938497 511.99062471 384.00938497L511.99062471 384.00938497zM286.9859419 384.00938497c-31.05064599 0-56.23242012 25.18177412-56.23242012 56.2511707s25.18177412 56.26992129 56.23242012 56.26992128c31.08814717 0 56.26992129-25.18177412 56.26992128-56.26992128S318.05533847 384.00938497 286.9859419 384.00938497L286.9859419 384.00938497z"  horiz-adv-x="1024" />

    
    <glyph glyph-name="jietu" unicode="&#58918;" d="M753.4 294.4c-31.6 0-60.8-8.9-86.5-23.2l-97.5 127.7L796.8 803.8c12.6 25.2-14 28-14 28L510.9 475.6 239 831.8s-26.6-2.8-14-28L452.4 399l-96.8-126.9c-25.4 13.8-54 22.4-85 22.4-98.9 0-179.1-80.2-179.1-179.1 0-98.9 80.2-179.1 179.1-179.1s179.1 80.2 179.1 179.1c0 19-3.8 37-9.2 54.2L510.9 295l71-126.3 2.1 2.5c-5.8-17.6-9.7-36.1-9.7-55.7 0-98.9 80.2-179.1 179.1-179.1s179.1 80.2 179.1 179.1c0 98.8-80.2 178.9-179.1 178.9zM270.6 25.799999999999955c-49.4 0-89.6 40.2-89.6 89.6 0 49.4 40.2 89.6 89.6 89.6s89.6-40.2 89.6-89.6c0-49.4-40.2-89.6-89.6-89.6z m239.3 296.6c-21.6 0-39.2 17.5-39.2 39.2 0 21.6 17.5 39.2 39.2 39.2s39.2-17.5 39.2-39.2c0-21.6-17.6-39.2-39.2-39.2z m243.5-296.6c-49.4 0-89.6 40.2-89.6 89.6 0 49.4 40.2 89.6 89.6 89.6 49.4 0 89.6-40.2 89.6-89.6-0.1-49.4-40.2-89.6-89.6-89.6z"  horiz-adv-x="1024" />

    
    <glyph glyph-name="jia" unicode="&#58930;" d="M948.90666667 420.40888889H549.31911111V820.90666667h-74.63822222v-400.49777778H75.09333333v-75.54844444h399.58755556V-52.90666667000005h74.63822222V344.86044445000005H948.90666667z"  horiz-adv-x="1024" />

    
    <glyph glyph-name="quanping" unicode="&#58895;" d="M129.302 1.2999999999999545H894.7V766.698H129.302V1.2999999999999545z m772.127-67.301H122.571c-33.399 0-60.572 27.172-60.572 60.572V773.429c0 33.398 27.172 60.572 60.572 60.572h778.858c33.398 0 60.572-27.174 60.572-60.572v-778.858c0-33.399-27.174-60.572-60.572-60.572z"  horiz-adv-x="1024" />

    
    <glyph glyph-name="xia" unicode="&#59135;" d="M507.08641664 142.03705705000004c-13.72839391 0-27.45678784 5.14814772-37.7530833 15.44444317L93.51854963 533.29628396c-20.59259088 20.59259088-20.59259088 54.91357571 0 75.50616657 20.59259088 20.59259088 54.91357571 20.59259088 75.50616659 0l337.20367578-337.20367579 337.20367581 337.20367579c20.59259088 20.59259088 54.91357571 20.59259088 75.50616661 0 20.59259088-20.59259088 20.59259088-54.91357571 0-75.50616657l-375.81478374-375.81478374c-8.5802462-9.43827083-22.30864012-15.44444316-36.03703404-15.44444317z"  horiz-adv-x="1024" />

    
    <glyph glyph-name="o" unicode="&#58884;" d="M510.43801385 835.89994887a381.54115105 381.54115105 0 0 1-308.26664574-133.28948506 473.76775504 473.76775504 0 0 1-109.9638252-321.59559223 465.12476496 465.12476496 0 0 1 109.9638252-318.26335711 382.82545145 382.82545145 0 0 1 308.26664574-134.95560365 390.80893557 390.80893557 0 0 1 309.93276429 134.95560365A472.24048037 472.24048037 0 0 1 928.52964091 381.01487158a473.76775504 473.76775504 0 0 1-109.96382522 321.59559223 383.79735258 383.79735258 0 0 1-308.12780184 133.28948506z m0-111.62994375a256.33928247 256.33928247 0 0 0 214.96400617-104.96546949 399.17423986 399.17423986 0 0 0 68.31086114-238.28966405 400.97920032 400.97920032 0 0 0-68.31086114-236.51941509 256.33928247 256.33928247 0 0 0-214.96400617-104.96546952A247.14092095 247.14092095 0 0 0 297.17483772 144.49545649000004a386.19239802 386.19239802 0 0 0-68.31086109 236.62354751 387.96264901 387.96264901 0 0 0 68.31086109 238.28966402 247.14092095 247.14092095 0 0 0 213.26317613 104.75720472z"  horiz-adv-x="1024" />

    
    <glyph glyph-name="wenjianjia" unicode="&#58948;" d="M832.48000001 702.29333333H456.16000001c0 58.88-48.128 107.52-107.52 107.52H187.36000001c-58.88 0-107.52-48.128-107.52-107.52v-644.608c0-58.88 48.128-107.52 107.52-107.52h644.60799999c58.88 0 107.52 48.128 107.52 107.52v537.6c0.512 58.88-48.128 107.008-107.00799999 107.008zM886.24000001 57.68533333000005c0-29.696-24.064-53.76-53.76-53.76h-645.12c-29.696 0-53.76 24.064-53.76 53.76v430.08h752.64v-430.08z m0 483.84H133.60000001V702.29333333c0 29.696 24.064 53.76 53.76 53.76H348.64000001c29.696 0 53.76-24.064 53.76-53.76v-53.76h430.08c29.696 0 53.76-24.064 53.76-53.76v-53.248z m0 0"  horiz-adv-x="1024" />

    
    <glyph glyph-name="xiaoxi" unicode="&#58893;" d="M512 784.5c222.75 0 402.75-150.75 402.75-335.25S734.75 114 512 114c-11.25 0-22.5 0-33.75 2.25h-13.5l-11.25-6.75-153-81c-6.75-4.5-15.75 2.25-13.5 11.25l22.5 76.5 9 27c2.25 4.5 0 9-4.5 11.25l-24.75 13.5c-112.5 63-180 166.5-180 279 0 186.75 180 337.5 402.75 337.5m0 45C264.5 829.5 64.25 658.5 64.25 449.25c0-130.5 78.75-245.25 195.75-315 4.5 0 6.75-4.5 4.5-9l-51.75-173.25c-2.25-9 6.75-15.75 13.5-11.25l247.5 128.25c2.25 0 2.25 2.25 4.5 0 11.25 0 22.5-2.25 33.75-2.25 247.5 0 447.75 171 447.75 380.25 0 211.5-200.25 382.5-447.75 382.5z"  horiz-adv-x="1024" />

    
    <glyph glyph-name="toggle" unicode="&#59152;" d="M905.6 151.46666667l-192 196.8c-9.6 9.6-9.6 24 0 33.6l192 196.8c14.4 14.4 38.4 0 38.4-19.2V170.66666667000004c0-24-24-33.6-38.4-19.2zM824 746.66666667h-720c-14.4 0-24 9.6-24 24s9.6 24 24 24h720c14.4 0 24-9.6 24-24s-9.6-24-24-24zM488 362.66666667000004h-384c-14.4 0-24 9.6-24 24s9.6 24 24 24h384c14.4 0 24-9.6 24-24s-9.6-24-24-24zM824-21.33333332999996h-720c-14.4 0-24 9.6-24 24s9.6 24 24 24h720c14.4 0 24-9.6 24-24s-9.6-24-24-24z"  horiz-adv-x="1024" />

    
    <glyph glyph-name="more" unicode="&#58900;" d="M111.45833333 812.66666667h1068.75a28.125 28.125 0 0 0 0-56.25H111.45833333a28.125 28.125 0 0 0 0 56.25z m0-394.5375h1068.75a28.125 28.125 0 0 0 0-56.25H111.45833333a28.125 28.125 0 0 0 0 56.25z m0-394.59375h1068.75a28.125 28.125 0 0 0 0-56.25H111.45833333a28.125 28.125 0 0 0 0 56.25z"  horiz-adv-x="1280" />

    
    <glyph glyph-name="bangzhu" unicode="&#58994;" d="M417.18851738 193.01765156v22.54372032a27.92247012 27.92247012 0 0 0 27.84899004 27.84899003 27.92247012 27.92247012 0 0 1 27.84899004 27.84899092v144.52082754a27.92247012 27.92247012 0 0 1-27.84899004 27.84899004 27.92247012 27.92247012 0 0 0-27.84899004 27.84899004v22.52902413a27.92247012 27.92247012 0 0 0 27.84899004 27.84899003h78.22700508a27.92247012 27.92247012 0 0 0 27.84899003-27.84899003v-222.76252794a27.92247012 27.92247012 0 0 1 27.84899005-27.84899003 27.92247012 27.92247012 0 0 0 27.84899003-27.84899005v-22.54372119a27.92247012 27.92247012 0 0 0-27.84899003-27.84899004h-133.92498516a27.92247012 27.92247012 0 0 0-27.84899003 27.86368623zM511.99265234 834C263.17405039 834 62 632.82594961 62 384.00734766s201.17405039-449.99265234 449.99265234-449.99265147 449.99265234 201.17405039 449.99265147 449.99265147S760.82594961 834 511.99265234 834z m0-815.4830918c-201.52675459 0-365.49043945 163.94898867-365.49043945 365.49043946S310.46589687 749.49778711 512.00734766 749.49778711s365.49043945-163.96368487 365.49043945-365.49043945-163.96368487-365.49043945-365.49043945-365.49043946zM472.88649747 633.23743857m27.84899003 0l22.529025 0q27.84899003 0 27.84899004-27.84899003l0-22.52902412q0-27.84899003-27.84899004-27.84899005l-22.529025 0q-27.84899003 0-27.84899003 27.84899005l0 22.52902412q0 27.84899003 27.84899003 27.84899003Z"  horiz-adv-x="1024" />

    
    <glyph glyph-name="guanbi" unicode="&#59041;" d="M776.63285093 386.11672178l490.52967822 490.57336888a64.09299437 64.09299437 0 0 1 0 90.29525808l-2.69061689 2.69061689a64.12333511 64.12333511 0 0 1-90.30982162 0l-490.56001896-491.19232-490.5733689 491.39863703a64.10755792 64.10755792 0 0 1-90.29525807 0l-2.6906169-2.69061688a63.00558222 63.00558222 0 0 1 0-90.31103527l490.5733689-490.76390873-490.5733689-490.57336891a64.10755792 64.10755792 0 0 1 0-90.29647169l2.6906169-2.69061688a64.09299437 64.09299437 0 0 1 90.29525807 0l490.5733689 490.57336888 490.57336888-490.57336888a64.10755792 64.10755792 0 0 1 90.31103525 0l2.6906169 2.69061688a64.09299437 64.09299437 0 0 1 0 90.29525807z m0 0"  horiz-adv-x="1366" />

    
    <glyph glyph-name="zuixiaohua" unicode="&#58892;" d="M110.12348519 427.13579537h1029.62954445v-85.80246203H110.12348519V427.13579537z"  horiz-adv-x="1228" />

    
    <glyph glyph-name="github" unicode="&#58954;" d="M62 376.19003906c0 60.96796875 11.87402344 119.26494141 35.59394531 174.91992188 23.71904297 55.65498047 55.65410156 103.55800781 95.80605469 143.70996093 40.12207031 40.12207031 88.02597656 72.05712891 143.70996094 95.80605469A441.46494141 441.46494141 0 0 0 512 826.16015625c60.93896484 0 119.23505859-11.84501953 174.89003906-35.59306641 55.68398438-23.71992188 103.58789063-55.65498047 143.70996094-95.80693359 40.15195312-40.12207031 72.08789063-88.02597656 95.80605469-143.70996094A441.46494141 441.46494141 0 0 0 962 376.21992187c0-97.83808594-28.56796875-185.8640625-85.70302734-264.10605468-57.10693359-78.21298828-130.5-132.56103516-220.15195313-163.01601563-4.70302734 0-8.21601563 0.87011719-10.53808594 2.61298828-2.35195313 1.74199219-3.68789062 3.51298828-3.97792968 5.28398438a52.25800781 52.25800781 0 0 0-0.4350586 7.89609375 6.73505859 6.73505859 0 0 0-0.87099609 2.64199219v113.37011718c0 35.70996094-12.6 66.19394531-37.8 91.39394532 67.38310547 11.72900391 117.78310547 36.75498047 151.17099609 75.13505859 33.38701172 38.38095703 50.10908203 84.83203125 50.10908203 139.32597656 0 50.98095703-16.40302734 95.22597656-49.23808593 132.70605469 11.72900391 37.50996094 9.66796875 77.05195312-6.12597657 118.65498047-16.43291016 1.16191406-34.28701172-1.62597656-53.62207031-8.36103516-19.3359375-6.73505859-33.67792969-13.03505859-43.08398437-18.87011718-9.34892578-5.86494141-17.85585938-11.43984375-25.46191407-16.72294922-33.99609375 9.37705078-71.94199219 14.08007813-113.80605468 14.08007812-41.92382813 0-79.54892578-4.70302734-112.96494141-14.08007812-6.44501953 4.70214844-13.93505859 9.81210938-22.41210937 15.38701172-8.5078125 5.57402344-23.28486328 12.30908203-44.39091797 20.20605468-21.07792969 7.92597656-40.12207031 11.29394531-57.1359375 10.10302735-16.40302734-42.18398438-18.14501953-82.30605469-5.25498047-120.39609375-32.22509766-37.50996094-48.33808594-81.72597656-48.33808594-132.70605469 0-54.49394531 16.40302734-100.80087891 49.20996094-138.86191406 32.80605469-38.09091797 83.20605469-63.29003906 151.17011718-75.6a125.07099609 125.07099609 0 0 1-35.1290039-61.54892578c-49.81904297-12.28007813-84.68701172-3.48310547-104.60302735 26.41992187-36.92900391 53.88398437-70.02597656 73.21904297-99.31904296 57.97705078-4.12207031-4.09306641-3.51298828-8.33203125 1.74199218-12.74501953 5.28398438-4.38398437 13.18007812-10.24804688 23.74804688-17.56494141 10.53808594-7.34501953 18.4359375-15.38701172 23.71904297-24.18310546 0.58095703-1.16191406 2.20605469-5.42900391 4.84892578-12.74589844a731.17705078 731.17705078 0 0 1 7.89697265-21.07705078c2.61298828-6.73505859 7.60605469-14.22597656 14.95107422-22.41210938 7.31601563-8.21689453 15.82294922-15.09785156 25.49091797-20.671875 9.66796875-5.54501953 22.99306641-9.66796875 39.97705078-12.30996094 16.98398438-2.61210937 36.31904297-2.75800781 58.00605469-0.43505859v-88.31601562c0-0.87099609-0.14501953-2.32294922-0.43505859-4.41298829-0.29003906-2.03203125-0.87099609-3.48398437-1.74199219-4.35498046-0.87099609-0.9-2.06103516-1.77099609-3.54199219-2.6709961a11.00390625 11.00390625 0 0 0-5.69003906-1.30605469c-2.35195313 0-5.28398438 0.29003906-8.79697266 0.87011719-89.07099609 31.06494141-161.56494141 85.41386719-217.53808593 163.04589844C89.98613281 191.48701172000005 62 278.90302734 62 376.16015625z"  horiz-adv-x="1024" />

    
    <glyph glyph-name="lishixiaoxi" unicode="&#58928;" d="M512-1.7142858400000023c212.14285752 0 385.71428584 173.57142832 385.71428584 385.71428584s-173.57142832 385.71428584-385.71428584 385.71428584-385.71428584-173.57142832-385.71428584-385.71428584 173.57142832-385.71428584 385.71428584-385.71428584z m0-64.28571416c-250.71428584 0-450 199.28571416-450 450s199.28571416 450 450 450 450-199.28571416 450-450-199.28571416-450-450-450z m32.14285752 482.14285752h135c19.28571416 0 32.14285752-12.85714248 32.14285664-32.14285752s-19.28571416-32.14285752-32.14285664-32.14285752H512c-19.28571416 0-32.14285752 12.85714248-32.14285752 32.14285752V609c0 19.28571416 12.85714248 32.14285752 32.14285752 32.14285752s32.14285752-12.85714248 32.14285752-32.14285752v-192.85714248z"  horiz-adv-x="1024" />

    
    <glyph glyph-name="help" unicode="&#58908;" d="M512-66C263.47727305-66 62 135.47727305 62 384S263.47727305 834 512 834s450-201.47727305 450-450-201.47727305-450-450-450z m0 59.97272695c215.34545479 0 390.02727305 174.55909131 390.02727305 390.02727305S727.34545479 774.02727305 512 774.02727305c-215.34545479 0-390.02727305-174.68181826-390.02727305-390.02727305 0-215.34545479 174.68181826-390.02727305 390.02727305-390.02727305zM523.65909131 603.96818174c40.99090869 0 74.20909131-10.84090869 99.81818174-33.95454522 25.65-22.37727305 38.37272695-53.14090869 38.37272695-91.51363652 0-31.33636348-8.30454521-57.51818174-24.3-78.01363652-5.72727305-7.03636347-23.72727305-23.72727305-53.71363652-49.90909043-12.19090869-10.26818174-21.10909131-21.80454521-26.91818174-33.25909131-7.03636347-12.76363653-10.22727305-26.91818174-10.22727305-42.3v-10.84090869h-68.52272695v10.84090869c0 23.72727305 3.80454521 44.18181826 12.72272695 60.75 8.34545479 17.87727305 32.64545479 44.18181826 72.32727305 79.36363652l10.84090957 12.15c11.57727305 14.76818174 17.87727305 30.02727305 17.87727217 46.71818174 0 22.41818174-6.42272695 39.68181826-18.57272695 52.44545479-12.76363653 12.76363653-31.33636348 19.18636348-54.40909132 19.18636347-28.84090869 0-49.90909131-8.95909131-62.71363652-27.53181826-11.53636348-15.38181826-17.26363652-37.18636348-17.26363564-65.29090869H371.76363653c0 46.71818174 13.5 83.16818174 40.29545478 110.08636348 27.12272695 27.61363653 64.26818174 41.07272695 111.6 41.07272695zM512.20454521 229.60909131000005c13.45909131 0 24.91363652-3.80454521 33.9545461-12.76363652 8.91818174-8.34545479 13.45909131-19.18636348 13.45909043-32.64545479 0-13.45909131-5.11363652-24.3-14.07272695-33.21818174a47.86363653 47.86363653 0 0 0-33.25909131-12.76363652c-12.72272695 0-24.3 4.5-33.21818174 13.45909131a44.59090869 44.59090869 0 0 0-13.5 32.6454539c0 13.45909131 4.54090869 24.3 13.5 32.64545479 8.71363652 8.83636347 20.29090869 12.68181826 33.13636347 12.68181826z"  horiz-adv-x="1024" />

    
    <glyph glyph-name="shoucang" unicode="&#58882;" d="M514.41304326 428.95695645l330.40695674 189.49695644-344.17304385 154.78695703-319.96565156-154.78695703L514.41304326 428.95695645z m-33.2439126-47.90739112L152.67304355 569.64260888c-39.26608682 22.51956533-37.23913037 79.79869599 3.49173897 99.50478224L476.13043497 823.91086992a56.31260888 56.31260888 0 0 0 47.62956532 0.67565216l344.16782578-154.78826133c42.14086963-18.94565215 45.4513043-71.62434756 5.19782608-94.25608682L536.81652178 380.79521778000003a56.2826083 56.2826083 0 0 0-55.61739141 0.25434755h-0.02999971z m0 0M542.73173926-6.418695699999944l336.54391259 188.53956562V576.2882607500001L542.73173926 380.28782607000005v-386.70652177z m-56.29695645 0V380.28782607000005a56.29695645 56.29695645 0 0 0 27.97956475 48.66782608l336.54391348 195.99913037c37.52217422 21.84000029 84.61434815-5.23565244 84.61434726-48.66782608v-394.16739082a56.30347793 56.30347793 0 0 0-28.76869512-49.11913125L570.25869541-55.53782607000005c-37.52217422-21.02478222-83.82391347 6.11217422-83.8239126 49.11913037z m0 0M487.05304326 378.14739140999995v-384.05869542L145.44043437 182.03739141000005V574.55217393c-17.09608711 13.54695645-23.6713043 34.74260859-20.08434726 54.2673914-20.50826045-7.90434756-36.21130401-27.55434815-36.21130489-52.6173917v-394.16478222A56.29173925 56.29173925 0 0 1 118.30869599 132.69130458999996l341.60869513-187.94608681c37.52217422-20.63478252 83.43260859 6.50347823 83.43260859 49.34217392V380.79521778000003c0 1.20782637 0.07695615-1.19478252 0 0-15.37434756-8.64391289-40.31347852-9.50608653-56.29695645-2.64782637z"  horiz-adv-x="1024" />

    
    <glyph glyph-name="tongxunlu" unicode="&#58975;" d="M880.33333343 533.24999971h265.34999971c20.85000029 0 36.5000001-10.50000029 36.50000009-32.69999971 0-22.1500002-18.1000002-32.64999961-38.89999951-32.64999961H880.33333343c-20.85000029 0-37.7499999 10.50000029-37.7499999 32.64999961 0 22.20000029 16.89999961 32.69999971 37.7499999 32.69999971z m301.20000029-182.34999932c0-22.1500002-15.6999999-32.64999961-36.5000001-32.65000049h-208.40000009c-20.85000029 0-37.8 10.50000029-37.8 32.65000049 0 22.1500002 16.94999971 32.64999961 37.8 32.64999961h209.5499997c20.85000029 0 35.34999961-10.50000029 35.35000049-32.64999961z m-191.25-338.60000039c0-48.6-39.80000039-78.3-88.7000001-78.3H172.03333343C123.18333294-66 83.33333333-36.299999999999955 83.33333333 12.299999999999955v21.0999999c0 44.4999999 33.05000039 83.99999971 75.25000019 99l180.64999952 79.85000039s48.9999999 14.9000001 62.40000058 29.79999932c8.8999998 9.9 11.6499999 42.59999971 0.34999981 64.05000029-11.3000001 21.49999981-102.84999961 139.60000019-102.85000049 238.6500003C299.13333294 704.5000001999999 405.08333333 834 535.73333362 834c130.70000039 0 236.5999998-129.4999998 236.59999981-289.24999981 0-103.4499999-102.70000019-217.2999999-111.15-245.30000009-8.4999999-28.00000019-9.15000029-50.0000001 0.3999999-59.24999971 14.85-14.50000019 53.0499999-29.1999999 53.0499999-29.20000078l200.4000003-77.4c42.1999998-15.00000029 75.25000019-55.64999971 75.25000019-100.19999971v-21.0999999z m155.29999922 164.99999971H1006.33333343c-20.85000029 0-37.8 10.50000029-37.8 32.65000048 0 22.1500002 16.94999971 32.64999961 37.8 32.64999961h140.50000019c20.8000002 0 36.5000001-10.50000029 36.5000001-32.64999961 0-22.20000029-16.89999961-32.69999971-37.75000078-32.70000058z"  horiz-adv-x="1251" />

    
    <glyph glyph-name="pingbixiaoxi" unicode="&#58885;" d="M861.7945973 91.48267962L302.11219532 660.72050094 183.80175361 780.96411938 125.36456912 723.35544067l128.86006646-127.03735528v-0.44186993c-23.91616349-44.90494356-36.78559952-97.98446524-36.78559952-155.09604125v-226.84453041L125.36456912 123.29725217999999v-45.40204626h631.98322788l92.01923289-90.69362439 58.49241726 57.6086787-46.06484985 46.72765346z m-368.18739707-150.12501429c51.09111088 0 92.01923289 40.32055247 92.01923289 90.69362569H401.53273459c0-50.37307323 40.98335606-90.69362569 92.07446564-90.69362569z m276.16816419 332.00936836V440.33830558c0 139.74109172-75.50437578 255.8421877-207.12612347 286.66255487v30.930834A68.48970526 68.48970526 0 0 1 493.60720023 825.86906294c-38.22167355 0-69.04204071-30.37849854-69.04204071-68.04783532v-30.82036717c-6.90420368-1.38084126-13.36653873-3.64541977-19.33177238-5.46812967-4.63962516-1.38084126-9.22401627-3.14831707-13.80840737-4.97102696h-0.4971027c-0.44186863 0-0.44186863 0-0.88373856-0.44186863a386.41449591 386.41449591 0 0 1-31.31746987-14.08457641s-0.44186863 0-0.44186863-0.44186992l411.49056441-428.22635517z"  horiz-adv-x="1024" />

    
    <glyph glyph-name="xiugai" unicode="&#58890;" d="M931.73333333 684L830.93333333 784.8c-36 36-96 36-134.4 0L175.73333333 266.4c-4.8-4.8-7.2-9.6-7.2-16.8L91.73333333-21.600000000000023c-2.4-7.2 0-16.8 7.2-24 4.8-4.8 9.6-7.2 16.8-7.2h7.2L391.73333333 24c4.8 0 12 2.4 14.4 7.2l523.2 516c16.8 16.8 28.8 40.8 28.8 67.2 2.4 28.8-7.2 52.8-26.4 69.6z m-552-612L149.33333333 7.2000000000000455l64.8 230.4L641.33333333 660l165.6-165.6L379.73333333 72z m518.4 513.6l-57.6-57.6-165.6 165.6 57.6 57.6c19.2 16.8 48 16.8 64.8 0l100.8-100.8c9.6-9.6 14.4-21.6 14.4-33.6 0-12-4.8-24-14.4-31.2z"  horiz-adv-x="1024" />

    
    <glyph glyph-name="shezhi" unicode="&#58897;" d="M881 384c0 52.4 32.9 96.8 79 114.5-11 43.2-28 83.9-50.2 121.3C864.6 599.7 810 607.9 773 645c-37 37-45.2 91.7-25.1 136.8C710.4 804 669.7 821 626.5 832c-17.8-46.1-62.2-79-114.5-79-52.4 0-96.8 32.9-114.5 79-43.2-11-83.9-28-121.3-50.2 20.1-45.2 11.9-99.8-25.1-136.8-37-37-91.7-45.2-136.8-25.2C92 582.4 75 541.7 64 498.5c46.1-17.8 79-62.2 79-114.5 0-52.4-32.9-96.8-79-114.5 11-43.2 28-83.9 50.2-121.3C159.4 168.29999999999995 214 160.10000000000002 251 123c37-37 45.2-91.7 25.1-136.8C313.6-36 354.3-53 397.5-64c17.8 46.1 62.2 79 114.5 79 52.4 0 96.8-32.9 114.5-79 43.2 11 83.9 28 121.3 50.2-20.1 45.2-11.9 99.8 25.1 136.8 37 37 91.7 45.2 136.8 25.2C932 185.60000000000002 949 226.29999999999995 960 269.5c-46.1 17.7-79 62.1-79 114.5zM512 261c-67.9 0-123 55.1-123 123s55.1 123 123 123 123-55.1 123-123-55.1-123-123-123z"  horiz-adv-x="1024" />

    
    <glyph glyph-name="tuichu" unicode="&#59003;" d="M523.79569056 384.87155684a32.99604434 32.99604434 0 0 0-33.61436983 32.26529707V801.56606894C490.18132073 819.44126865 505.24595491 834 523.79569056 834c18.60594697 0 33.72679159-14.61494268 33.7267916-32.43393105v-384.26058106a33.05225566 33.05225566 0 0 0-33.67058028-32.43393105zM513.67765237-65.38111376999996a437.15543203 437.15543203 0 0 0-304.10323857 121.52887295A413.49046729 413.49046729 0 0 0 117.38784974 188.01951562a402.0233581 402.0233581 0 0 0 15.4581126 354.01889004A424.67651982 424.67651982 0 0 0 263.70591487 686.72634229a34.45753887 34.45753887 0 0 0 46.99266241-7.53231622 31.59076201 31.59076201 0 0 0-7.86958418-45.13768945 358.96548692 358.96548692 0 0 1-110.39903175-122.20340889 334.738408 334.738408 0 0 1-41.54016532-162.22586835c0-93.53563594 37.77400635-181.45013994 106.35181699-247.55465128a367.17233994 367.17233994 0 0 1 256.54846201-102.52944755 367.39718437 367.39718437 0 0 1 256.54846289 102.47323623 341.53997783 341.53997783 0 0 1 106.23939434 247.6108626 334.45735136 334.45735136 0 0 1-41.42774268 162.22586835 358.62821895 358.62821895 0 0 1-110.56766573 122.09098623 31.59076201 31.59076201 0 0 0-8.26306435 44.51936485l0.56211328 0.67453593a34.40132754 34.40132754 0 0 0 46.93645196 7.53231623 424.11440654 424.11440654 0 0 0 130.80374121-144.6317253 401.62987881 401.62987881 0 0 0 15.51432392-354.01889004 412.92835401 412.92835401 0 0 0-92.18656406-131.92796777 430.57870839 430.57870839 0 0 0-136.70592978-88.92630703A442.4955082 442.4955082 0 0 0 513.67765237-65.38111376999996z"  horiz-adv-x="1024" />

    
    <glyph glyph-name="dianhuashipin" unicode="&#58887;" d="M832.13333333-86.80392151000001l-16.14705908 5.29411728C129.70980423 126.70784303999994 86.61568606 641.61372575 83.91568606 646.96078396v32.02941182L264.23333333 812.3490194l185.71764727-240.14117636-94.23529454-104.08235273c32.29411729-109.37647089 201.91764727-229.44705908 279.9529418-277.41176456l126.52941094 85.34117637 220.65882363-194.77058818-150.7235291-168.08823545zM137.75686244 649.60784304c2.64705908-29.38235273 51.14117637-477.63529453 678.22941181-675l96.88235361 101.32941181-148.02352998 130.76470635-121.12941182-80.04705908-13.4470582 7.94117637c-10.74705908 8.04705908-288 168.14117637-322.94117724 333.52941182l-2.7 13.34117636 83.43529453 90.74117637-126.52941182 162.74117636-123.7764709-85.39411728zM682.0980388 649.02549031a11.54117637 11.54117637 0 1 1 0-23.02941182 11.54117637 11.54117637 0 0 1 0 23.02941181z m453.6 33.77647089a11.38235273 11.38235273 0 0 1-11.7-0.42352998L992.33333333 595.1313721399999V660.56666667a46.05882363 46.05882363 0 0 1-45.95294092 46.16470547h-287.36470635a46.05882363 46.05882363 0 0 1-45.95294091-46.16470547v-230.82352911a46.05882363 46.05882363 0 0 1 45.95294091-46.21764725h287.36470635a46.05882363 46.05882363 0 0 1 45.95294092 46.16470547V485.33137214l131.50588271-88.57058818a11.54117637 11.54117637 0 0 1 11.75294093-0.52941182 11.54117637 11.54117637 0 0 1 6.03529365 10.16470635v266.29411728a11.54117637 11.54117637 0 0 1-5.98235274 10.11176543z m-166.23529365-106.94117724a11.54117637 11.54117637 0 0 1-0.26470635-2.32941182v-66.38823458c0-0.79411729 0.05294092-1.58823545 0.21176543-2.32941181v-75.12352998c0-12.70588271-10.27058818-23.08235273-22.9764709-23.08235274h-287.36470547a23.02941182 23.02941182 0 0 0-22.97647089 23.08235274v230.82352998c0 12.81176455 10.32352911 23.13529453 22.97647089 23.13529365h287.36470547c12.70588271 0 22.9764709-10.32352911 22.9764709-23.08235273v-84.70588271z m149.29411729-148.07647002L992.33333333 513.2313721400001V567.39019577l126.31764727 84.12352998V427.78431394z"  horiz-adv-x="1204" />

    
    <glyph glyph-name="zhuanfa" unicode="&#59055;" d="M696.32 519.31733333a34.13333333 34.13333333 0 0 1 34.13333333-34.13333333h61.09866667V5.6533333300000095h-558.93333333V485.184h61.14133333a34.13333333 34.13333333 0 0 1 34.13333333 34.13333333 34.13333333 34.13333333 0 0 1-34.13333333 34.13333334h-95.232a34.13333333 34.13333333 0 0 1-34.13333333-34.13333334V-28.480000000000018a34.13333333 34.13333333 0 0 1 34.13333333-34.13333333h627.2a34.13333333 34.13333333 0 0 1 34.13333333 34.13333333V519.31733333a34.13333333 34.13333333 0 0 1-34.13333333 34.13333334H730.45333333a34.13333333 34.13333333 0 0 1-34.13333333-34.13333334zM379.872 623.424a34.02666667 34.02666667 0 0 1 24.13866667 9.99466667l73.14133333 73.152v-331.232a34.13333333 34.13333333 0 0 1 34.13333333-34.13333334 34.13333333 34.13333333 0 0 1 34.13333334 34.13333334V706.57066667l73.152-73.152a34.13333333 34.13333333 0 1 1 48.26666666 48.27733333L535.46666667 813.10933333a34.13333333 34.13333333 0 0 1-48.26666667 0L356.26666667 682.1759999999999c-13.19466667-13.19466667-13.93066667-34.70933333-1.06666667-48.192a34.016 34.016 0 0 1 24.672-10.56z"  horiz-adv-x="1024" />

    


  </font>
</defs>
</svg>
